:SAMPLES-PER-SECOND 30
:FULLY-SPECIFIED
:DEGREES
408
root  12.3495 32.9846 -51.0508 70.0582 -45.0382 -12.4839
LeftUpLeg  -77.5102 13.6561 23.5036
LeftLeg  22.7693 -2.39766 -0.832097
LeftFoot  -16.2698 0.00361466 0.0252785
LeftToes  27.9615 1.85109e-006 5.31342e-008
Spine  19.6378 8.70534 9.88112
Spine1  39.5775 23.7432 5.20495
RightShoulder  0.752491 17.476 -1.08877
RightArm  -52.7979 34.2538 16.5923
RightForeArm  58.7582 13.4697 2.37629
RightHand  1.25078 -8.98952 -15.4297
LeftShoulder1  0.240927 -18.8032 -1.37332
LeftArm  38.5421 -7.49779 -50.3141
LeftForeArm  131.673 -79.5529 -104.776
LeftHand  -2.95871 -17.6036 18.5751
HEad  -28.3745 -7.77148 -4.96821
RightUpLeg  -76.6879 -7.29121 22.5916
RightLeg  30.579 32.1634 15.13
RightFoot  3.10423 -0.0424042 1.94196
RightToes  -29.0748 -0.137602 -0.245484
409
root  12.2467 32.9905 -51.2247 69.488 -47.944 -12.6693
LeftUpLeg  -75.2819 12.7464 24.3258
LeftLeg  22.9252 -5.35966 -1.87032
LeftFoot  -14.3304 0.0847607 0.674228
LeftToes  28.4795 1.85109e-006 5.31342e-008
Spine  19.7854 8.38523 9.56649
Spine1  39.3439 23.4934 4.28527
RightShoulder  0.629055 17.5515 -0.730422
RightArm  -51.4239 31.4721 12.4579
RightForeArm  47.0479 17.8336 3.22734
RightHand  1.39876 -10.6503 -14.5436
LeftShoulder1  0.23666 -17.6806 -1.12262
LeftArm  38.4969 -7.73997 -49.9191
LeftForeArm  130.563 -79.6247 -103.187
LeftHand  -3.17396 -16.5072 21.2644
HEad  -28.2258 -2.9472 -6.26092
RightUpLeg  -76.4774 -8.07562 24.3141
RightLeg  31.6047 33.4382 16.3004
RightFoot  3.62469 -0.0624681 2.35111
RightToes  -30.4768 -0.147218 -0.255266
410
root  12.1428 33.0211 -51.3569 69.8102 -50.5209 -13.6325
LeftUpLeg  -72.9741 11.9266 25.9248
LeftLeg  22.514 -7.15674 -2.4357
LeftFoot  -12.6026 0.100622 0.911206
LeftToes  30.1446 1.85109e-006 5.31342e-008
Spine  19.6035 8.25162 9.1149
Spine1  38.6085 23.4211 3.47497
RightShoulder  0.535201 17.2409 -0.359025
RightArm  -54.485 30.7674 10.1131
RightForeArm  40.0672 19.9126 3.64663
RightHand  1.65835 -12.4173 -14.7783
LeftShoulder1  0.222213 -16.1263 -0.978096
LeftArm  38.8427 -7.59224 -49.4072
LeftForeArm  131.671 -79.6029 -103.707
LeftHand  -3.19855 -14.7262 24.0247
HEad  -28.1691 2.90771 -8.10433
RightUpLeg  -75.5729 -7.09603 24.0741
RightLeg  30.8212 32.3854 15.3711
RightFoot  3.94643 -0.069565 2.39606
RightToes  -30.2957 -0.145962 -0.254016
411
root  12.0373 33.0127 -51.3908 67.2884 -55.9344 -14.0854
LeftUpLeg  -68.366 10.8562 24.4698
LeftLeg  23.2454 -7.96024 -2.82021
LeftFoot  -9.86841 0.0594704 0.688842
LeftToes  29.1679 1.85109e-006 5.31342e-008
Spine  20.4619 8.28248 7.79895
Spine1  38.7965 24.4598 0.295632
RightShoulder  0.531579 16.547 -0.098342
RightArm  -56.776 30.7082 9.78758
RightForeArm  35.2314 21.3311 3.93764
RightHand  1.94248 -13.8517 -15.5131
LeftShoulder1  0.222774 -15.0998 -0.326604
LeftArm  37.6017 -8.30904 -47.9664
LeftForeArm  129.575 -79.6664 -102.153
LeftHand  -3.09354 -12.8571 26.5981
HEad  -28.6747 9.26693 -9.71021
RightUpLeg  -72.3816 -4.91908 18.5481
RightLeg  30.418 29.2944 13.8602
RightFoot  4.07238 -0.0648405 2.20077
RightToes  -32.0049 -0.157967 -0.253369
412
root  11.8936 32.9762 -51.2646 61.9961 -62.9549 -12.9651
LeftUpLeg  -62.3454 9.87131 20.2567
LeftLeg  24.3266 -6.73875 -2.53435
LeftFoot  -6.97885 0.00827332 0.135669
LeftToes  25.4406 1.85109e-006 5.31342e-008
Spine  21.7858 8.30618 6.1211
Spine1  39.2524 25.76 -3.97471
RightShoulder  0.580525 16.1643 0.0704893
RightArm  -57.9401 30.7838 10.717
RightForeArm  32.7549 22.2868 4.1356
RightHand  2.24678 -14.5973 -17.0318
LeftShoulder1  0.239351 -14.6548 -0.458038
LeftArm  35.7856 -9.01197 -46.062
LeftForeArm  124.02 -79.8064 -97.6289
LeftHand  -2.96888 -11.2836 29.0446
HEad  -29.5037 16.0186 -12.0846
RightUpLeg  -68.3458 -3.32153 12.3947
RightLeg  31.2579 26.9992 13.3485
RightFoot  3.57208 -0.0449852 1.81976
RightToes  -32.8503 -0.164033 -0.252852
